<svg xmlns="http://www.w3.org/2000/svg" width="40" height="40" fill="none" viewBox="0 0 40 40"><rect width="40" height="40" fill="#F7F8F8" fill-opacity=".12" rx="8"/><circle cx="19.792" cy="13.5" r="6.5" fill="url(#paint0_linear_8921_102395)"/><rect width="8.778" height="1.097" x="12.194" y="11.889" fill="#2D2C61" rx=".549"/><rect width="4.389" height="1.097" x="23.167" y="11.889" fill="#2D2C61" rx=".549"/><path fill="#FAABFF" d="M10 28.5835C10 24.9475 12.9475 22 16.5835 22H23.4165C27.0525 22 30 24.9475 30 28.5835V30.8055C30 32.0175 29.0175 33 27.8055 33H12.1945C10.9825 33 10 32.0175 10 30.8055V28.5835Z"/><path fill="url(#paint1_linear_8921_102395)" d="M21 26.5556C21 25.6964 21.6964 25 22.5556 25H33.4444C34.3036 25 35 25.6964 35 26.5556V34.3333C35 35.1924 34.3036 35.8889 33.4444 35.8889H22.5556C21.6964 35.8889 21 35.1924 21 34.3333V26.5556Z"/><rect width="14" height=".778" x="21" y="28.111" fill="#947DFF"/><path fill="#7958FF" d="M28.7778 26.9446C28.7778 26.7298 28.9519 26.5557 29.1667 26.5557H33.0556C33.2704 26.5557 33.4445 26.7298 33.4445 26.9446C33.4445 27.1593 33.2704 27.3334 33.0556 27.3334H29.1667C28.9519 27.3334 28.7778 27.1593 28.7778 26.9446Z"/><rect width=".778" height=".778" x="22.556" y="26.556" fill="#FFEAFE" rx=".389"/><path fill="#7958FF" d="M28.7778 30.8332C28.7778 30.6184 28.9519 30.4443 29.1667 30.4443H33.0556C33.2704 30.4443 33.4445 30.6184 33.4445 30.8332C33.4445 31.048 33.2704 31.2221 33.0556 31.2221H29.1667C28.9519 31.2221 28.7778 31.048 28.7778 30.8332Z"/><rect width=".778" height=".778" x="22.556" y="30.444" fill="#FFEAFE" rx=".389"/><rect width=".778" height=".778" x="24.111" y="30.444" fill="#FFEAFE" rx=".389"/><path fill="#7958FF" d="M28.7776 34.7229C28.7776 34.5081 28.9517 34.334 29.1665 34.334H33.0554C33.2701 34.334 33.4443 34.5081 33.4443 34.7229C33.4443 34.9377 33.2701 35.1118 33.0554 35.1118H29.1665C28.9517 35.1118 28.7776 34.9377 28.7776 34.7229Z"/><rect width=".778" height=".778" x="22.555" y="34.334" fill="#FFEAFE" rx=".389"/><rect width=".778" height=".778" x="24.111" y="34.334" fill="#FFEAFE" rx=".389"/><rect width="14" height=".778" x="21" y="32" fill="#947DFF"/><defs><linearGradient id="paint0_linear_8921_102395" x1="15.526" x2="24.261" y1="18.24" y2="8.896" gradientUnits="userSpaceOnUse"><stop stop-color="#5D34F2"/><stop offset="1" stop-color="#FF88FA"/></linearGradient><linearGradient id="paint1_linear_8921_102395" x1="19.85" x2="33.727" y1="31.238" y2="24.651" gradientUnits="userSpaceOnUse"><stop stop-color="#492EF3"/><stop offset="1" stop-color="#CF69FF"/></linearGradient></defs></svg>