<svg xmlns="http://www.w3.org/2000/svg" width="40" height="41" fill="none" viewBox="0 0 40 41"><rect width="40" height="40" y=".5" fill="#F7F8F8" fill-opacity=".12" rx="8"/><path fill="url(#paint0_linear_4270_17365)" d="M12 9.5C12 7.29086 13.7909 5.5 16 5.5H24C26.2091 5.5 28 7.29086 28 9.5V31.5C28 33.7091 26.2091 35.5 24 35.5H16C13.7909 35.5 12 33.7091 12 31.5V9.5Z"/><circle cx="20" cy="31.5" r="1.5" stroke="#D3BCF3"/><path fill="#5938A3" d="M16 6.5C16 5.94772 16.4477 5.5 17 5.5H23C23.5523 5.5 24 5.94772 24 6.5V7.5C24 8.05228 23.5523 8.5 23 8.5H17C16.4477 8.5 16 8.05228 16 7.5V6.5Z"/><path fill="#F4E560" d="M28.3509 4.50032C28.6075 4.05588 29.249 4.05588 29.5056 4.50033L35.2791 14.5003C35.5357 14.9448 35.2149 15.5003 34.7017 15.5003H23.1547C22.6415 15.5003 22.3208 14.9448 22.5774 14.5003L28.3509 4.50032Z" opacity=".6"/><g style="mix-blend-mode:multiply"><circle cx="10" cy="26.5" r="6" fill="#F07EFF"/></g><defs><linearGradient id="paint0_linear_4270_17365" x1="10.686" x2="29.393" y1="22.688" y2="19.004" gradientUnits="userSpaceOnUse"><stop stop-color="#614DDD"/><stop offset="1" stop-color="#D47AFE"/></linearGradient></defs></svg>