<svg xmlns="http://www.w3.org/2000/svg" width="48" height="48" fill="none" viewBox="0 0 48 48"><rect width="48" height="48" fill="#F3EFFA" rx="8"/><path fill="url(#paint0_linear_61_11317)" d="M6 13C6 10.7909 7.79086 9 10 9L32 9C34.2091 9 36 10.7909 36 13V27C36 29.2091 34.2091 31 32 31H10C7.79086 31 6 29.2091 6 27L6 13Z"/><path fill="url(#paint1_linear_61_11317)" d="M6 13C6 10.7909 7.79086 9 10 9L32 9C34.2091 9 36 10.7909 36 13V27C36 29.2091 34.2091 31 32 31H10C7.79086 31 6 29.2091 6 27L6 13Z"/><path fill="#7958FF" d="M14 34.5C14 33.6716 14.6716 33 15.5 33H26.5C27.3284 33 28 33.6716 28 34.5C28 35.3284 27.3284 36 26.5 36H15.5C14.6716 36 14 35.3284 14 34.5Z"/><path fill="url(#paint2_linear_61_11317)" d="M21 13C24.3137 13 27 15.6863 27 19C27 22.3137 21.3137 28 21 28C20.6863 28 15 22.3137 15 19C15 15.6863 17.6863 13 21 13ZM21 16.001C19.3431 16.001 18 17.3441 18 19.001C18.0003 20.6576 19.3433 22.001 21 22.001C22.6567 22.001 23.9997 20.6576 24 19.001C24 17.3441 22.6569 16.001 21 16.001Z"/><path fill="url(#paint3_linear_61_11317)" d="M21 13C24.3137 13 27 15.6863 27 19C27 22.3137 21.3137 28 21 28C20.6863 28 15 22.3137 15 19C15 15.6863 17.6863 13 21 13ZM21 16.001C19.3431 16.001 18 17.3441 18 19.001C18.0003 20.6576 19.3433 22.001 21 22.001C22.6567 22.001 23.9997 20.6576 24 19.001C24 17.3441 22.6569 16.001 21 16.001Z"/><path fill="#413B75" d="M21 16.0005C21.2593 16.0005 21.51 16.0363 21.75 16.0981C20.4565 16.4314 19.5 17.6029 19.5 19.0005C19.5002 20.3978 20.4567 21.5675 21.75 21.9009C21.51 21.9628 21.2594 22.0005 21 22.0005C19.3433 22.0004 18.0002 20.6571 18 19.0005C18 17.3437 19.3432 16.0005 21 16.0005Z"/><path fill="#F07EFF" d="M29 18C29 16.8954 29.97 16 31.1667 16H39.8333C41.03 16 42 16.8954 42 18V38C42 39.1046 41.03 40 39.8333 40H31.1667C29.9701 40 29 39.1046 29 38V18Z"/><path fill="#413B75" d="M32.5 18.25C32.5 17.8358 32.8358 17.5 33.25 17.5H37.75C38.1642 17.5 38.5 17.8358 38.5 18.25C38.5 18.6642 38.1642 19 37.75 19H33.25C32.8358 19 32.5 18.6642 32.5 18.25Z"/><path fill="#F3EFFA" d="M36.4336 36C36.4336 35.4845 36.0155 35.0664 35.5 35.0664C34.9845 35.0664 34.5664 35.4845 34.5664 36C34.5664 36.5155 34.9845 36.9336 35.5 36.9336V38C34.3954 38 33.5 37.1046 33.5 36C33.5 34.8954 34.3954 34 35.5 34C36.6046 34 37.5 34.8954 37.5 36C37.5 37.1046 36.6046 38 35.5 38V36.9336C36.0155 36.9336 36.4336 36.5155 36.4336 36Z"/><path fill="#E6DEFF" d="M8.24264 36.8286L8.94975 37.5357L7.53553 38.9499L6.82843 38.2428L8.24264 36.8286ZM6.82843 35.4144L5.41421 36.8286L7.53553 38.9499C7.14501 39.3405 6.51184 39.3405 6.12132 38.9499L4.70711 37.5357C4.31658 37.1452 4.31658 36.512 4.70711 36.1215L6.12132 34.7073L6.19728 34.6382C6.59005 34.3181 7.16948 34.3412 7.53553 34.7073L8.94975 36.1215L9.0188 36.1975C9.33898 36.5902 9.3158 37.1697 8.94975 37.5357L6.82843 35.4144Z"/><path fill="#F7F8F8" d="M42 9C42 8.44772 41.5523 8 41 8C40.4477 8 40 8.44772 40 9C40 9.55228 40.4477 10 41 10V11C39.8954 11 39 10.1046 39 9C39 7.89543 39.8954 7 41 7C42.1046 7 43 7.89543 43 9C43 10.1046 42.1046 11 41 11V10C41.5523 10 42 9.55228 42 9Z"/><path fill="#78767F" fill-opacity=".02" d="M42 9C42 8.44772 41.5523 8 41 8C40.4477 8 40 8.44772 40 9C40 9.55228 40.4477 10 41 10V11C39.8954 11 39 10.1046 39 9C39 7.89543 39.8954 7 41 7C42.1046 7 43 7.89543 43 9C43 10.1046 42.1046 11 41 11V10C41.5523 10 42 9.55228 42 9Z"/><path fill="#5D34F2" fill-opacity=".14" d="M42 9C42 8.44772 41.5523 8 41 8C40.4477 8 40 8.44772 40 9C40 9.55228 40.4477 10 41 10V11C39.8954 11 39 10.1046 39 9C39 7.89543 39.8954 7 41 7C42.1046 7 43 7.89543 43 9C43 10.1046 42.1046 11 41 11V10C41.5523 10 42 9.55228 42 9Z"/><defs><linearGradient id="paint0_linear_61_11317" x1="31.156" x2="18.638" y1="11.521" y2="32.789" gradientUnits="userSpaceOnUse"><stop stop-color="#F07EFF"/><stop offset="1" stop-color="#FFF480"/></linearGradient><linearGradient id="paint1_linear_61_11317" x1="3.536" x2="32.604" y1="21.604" y2="6.969" gradientUnits="userSpaceOnUse"><stop stop-color="#492EF3"/><stop offset="1" stop-color="#CF69FF"/></linearGradient><linearGradient id="paint2_linear_61_11317" x1="18.858" x2="22.687" y1="30" y2="13.563" gradientUnits="userSpaceOnUse"><stop stop-color="#4C36E7"/><stop offset="1" stop-color="#ED7CFF"/></linearGradient><linearGradient id="paint3_linear_61_11317" x1="19.798" x2="15.931" y1="13.118" y2="28.458" gradientUnits="userSpaceOnUse"><stop stop-color="#FFF06A"/><stop offset=".5" stop-color="#FC85E9"/><stop offset="1" stop-color="#E264F7"/></linearGradient></defs></svg>