<svg xmlns="http://www.w3.org/2000/svg" width="40" height="40" fill="none" viewBox="0 0 40 40"><g clip-path="url(#clip0_9121_87951)"><path fill="#53B9FF" d="M6.22886 8.45508L0.0490174 14.6428L9.57934 24.2018L0.000488281 33.8094L6.161 39.9998L15.7591 30.3895L25.3053 39.9312L31.4852 33.7434L6.22886 8.45508Z"/><path fill="#119EFF" d="M21.9557 24.2021L15.7593 30.3897L25.3054 39.9316L31.4853 33.7438L21.9557 24.2021Z"/><path fill="#000" fill-opacity=".2" d="M21.9557 24.2021L15.7593 30.3897L18.1446 32.7618L21.9557 24.2021Z"/><path fill="#53B9FF" d="M30.4011 15.7787L39.9993 6.16833L33.8168 0L24.2214 9.59103L14.6745 0.0485919L8.49463 6.2363L33.751 31.5247L39.9308 25.3369L30.4011 15.7787Z"/><path fill="#119EFF" d="M18.0249 15.778L24.2214 9.59029L14.6745 0.0478516L8.49463 6.23556L18.0249 15.778Z"/><path fill="#000" fill-opacity=".2" d="M18.0249 15.7782L24.2214 9.59054L21.8355 7.21777L18.0249 15.7782Z"/></g><defs><clipPath id="clip0_9121_87951"><rect width="40" height="40" fill="#fff"/></clipPath></defs></svg>