<svg xmlns="http://www.w3.org/2000/svg" width="40" height="40" fill="none" viewBox="0 0 40 40"><g clip-path="url(#clip0_11470_21285)"><path fill="url(#paint0_linear_11470_21285)" fill-rule="evenodd" d="M39.0115 5.25065C39.3141 5.25496 39.5628 5.49988 39.5628 5.80249V24.1589C39.5628 30.7003 31.1501 38.1656 23.566 40.161C23.394 40.2063 23.2162 40.2063 23.0442 40.161C15.4601 38.1656 7.04736 30.7003 7.04736 24.1589V5.80249C7.04736 5.49988 7.29612 5.25496 7.59871 5.25065C16.1854 5.12836 20.9913 2.16331 22.7972 0.213738C23.0612 -0.0712458 23.549 -0.0712459 23.813 0.213737C25.6189 2.16331 30.4248 5.12836 39.0115 5.25065ZM26.6825 16.5744C26.6825 17.9009 25.8776 19.039 24.7306 19.5246L26.5349 24.2234C26.676 24.5911 26.4047 24.986 26.0109 24.986H20.4701C20.0548 24.986 19.7833 24.5505 19.9661 24.1776L22.2475 19.5246C21.1005 19.039 20.2955 17.9009 20.2955 16.5744C20.2955 14.8065 21.7253 13.3733 23.489 13.3733C25.2527 13.3733 26.6825 14.8065 26.6825 16.5744Z" clip-rule="evenodd"/><path fill="url(#paint1_linear_11470_21285)" fill-rule="evenodd" d="M22.7972 0.213737C22.9292 0.0712637 23.1171 1.78196e-05 23.305 0V13.3785C21.6269 13.4741 20.2955 14.8684 20.2955 16.5744C20.2955 17.9009 21.1005 19.039 22.2475 19.5246L19.9661 24.1776C19.7833 24.5505 20.0548 24.986 20.4701 24.986H23.305V40.195C23.2176 40.195 23.1301 40.1837 23.0442 40.161C15.4601 38.1656 7.04736 30.7003 7.04736 24.1589V5.80249C7.04736 5.49988 7.29612 5.25496 7.59871 5.25065C16.1854 5.12836 20.9913 2.16331 22.7972 0.213737Z" clip-rule="evenodd"/><path fill="#4300DA" fill-rule="evenodd" d="M22.7972 0.213737C22.9292 0.0712637 23.1171 1.78196e-05 23.305 0V13.3785C21.6269 13.4741 20.2955 14.8684 20.2955 16.5744C20.2955 17.9009 21.1005 19.039 22.2475 19.5246L19.9661 24.1776C19.7833 24.5505 20.0548 24.986 20.4701 24.986H23.305V40.195C23.2176 40.195 23.1301 40.1837 23.0442 40.161C15.4601 38.1656 7.04736 30.7003 7.04736 24.1589V5.80249C7.04736 5.49988 7.29612 5.25496 7.59871 5.25065C16.1854 5.12836 20.9913 2.16331 22.7972 0.213737Z" clip-rule="evenodd"/><rect width="4.355" height="4.355" y="25.712" fill="url(#paint2_linear_11470_21285)" rx=".5"/><rect width="4.355" height="4.355" y="8.293" fill="url(#paint3_linear_11470_21285)" rx=".5"/><path fill="#191C1D" fill-opacity=".12" fill-rule="evenodd" d="M12.0964 21.737C12.2209 21.6105 12.1313 21.3967 11.9539 21.3967L0.512293 21.3965C0.234484 21.3965 0.00927773 21.1713 0.0092777 20.8935L0.00927739 17.3835C0.00927736 17.1057 0.234491 16.8804 0.512305 16.8804L11.9477 16.8806C12.126 16.8806 12.2152 16.6648 12.0889 16.5389L9.04317 13.5027C8.72714 13.1876 8.95079 12.6478 9.39703 12.6486L12.8315 12.6544C13.111 12.6549 13.3775 12.7723 13.5665 12.9782L18.8991 18.7881C19.185 19.0996 19.1791 19.5798 18.8857 19.8842L13.565 25.4046C13.3765 25.6001 13.1166 25.7106 12.845 25.7106L9.37825 25.7107C8.93468 25.7107 8.71074 25.176 9.02193 24.8599L12.0964 21.737Z" clip-rule="evenodd"/><path fill="url(#paint4_linear_11470_21285)" fill-rule="evenodd" d="M12.0964 21.737C12.2209 21.6105 12.1313 21.3967 11.9539 21.3967L0.512293 21.3965C0.234484 21.3965 0.00927773 21.1713 0.0092777 20.8935L0.00927739 17.3835C0.00927736 17.1057 0.234491 16.8804 0.512305 16.8804L11.9477 16.8806C12.126 16.8806 12.2152 16.6648 12.0889 16.5389L9.04317 13.5027C8.72714 13.1876 8.95079 12.6478 9.39703 12.6486L12.8315 12.6544C13.111 12.6549 13.3775 12.7723 13.5665 12.9782L18.8991 18.7881C19.185 19.0996 19.1791 19.5798 18.8857 19.8842L13.565 25.4046C13.3765 25.6001 13.1166 25.7106 12.845 25.7106L9.37825 25.7107C8.93468 25.7107 8.71074 25.176 9.02193 24.8599L12.0964 21.737Z" clip-rule="evenodd"/><path fill="url(#paint5_linear_11470_21285)" fill-rule="evenodd" d="M12.0964 21.737C12.2209 21.6105 12.1313 21.3967 11.9539 21.3967L0.512293 21.3965C0.234484 21.3965 0.00927773 21.1713 0.0092777 20.8935L0.00927739 17.3835C0.00927736 17.1057 0.234491 16.8804 0.512305 16.8804L11.9477 16.8806C12.126 16.8806 12.2152 16.6648 12.0889 16.5389L9.04317 13.5027C8.72714 13.1876 8.95079 12.6478 9.39703 12.6486L12.8315 12.6544C13.111 12.6549 13.3775 12.7723 13.5665 12.9782L18.8991 18.7881C19.185 19.0996 19.1791 19.5798 18.8857 19.8842L13.565 25.4046C13.3765 25.6001 13.1166 25.7106 12.845 25.7106L9.37825 25.7107C8.93468 25.7107 8.71074 25.176 9.02193 24.8599L12.0964 21.737Z" clip-rule="evenodd"/></g><defs><linearGradient id="paint0_linear_11470_21285" x1="4.376" x2="40.727" y1="22.8" y2="12.114" gradientUnits="userSpaceOnUse"><stop stop-color="#492EF3"/><stop offset="1" stop-color="#CF69FF"/></linearGradient><linearGradient id="paint1_linear_11470_21285" x1="5.712" x2="25.027" y1="23.028" y2="20.144" gradientUnits="userSpaceOnUse"><stop stop-color="#492EF3"/><stop offset="1" stop-color="#CF69FF"/></linearGradient><linearGradient id="paint2_linear_11470_21285" x1="9.76" x2="-3.693" y1="26.73" y2="29.103" gradientUnits="userSpaceOnUse"><stop stop-color="#FFF06A"/><stop offset="1" stop-color="#EC78FF"/></linearGradient><linearGradient id="paint3_linear_11470_21285" x1="9.76" x2="-3.693" y1="9.311" y2="11.684" gradientUnits="userSpaceOnUse"><stop stop-color="#FFF06A"/><stop offset="1" stop-color="#EC78FF"/></linearGradient><linearGradient id="paint4_linear_11470_21285" x1="-25.209" x2="19.736" y1="23.334" y2="10.659" gradientUnits="userSpaceOnUse"><stop stop-color="#FFF06A"/><stop offset="1" stop-color="#EC78FF"/></linearGradient><linearGradient id="paint5_linear_11470_21285" x1="-8.559" x2="32.232" y1="24.304" y2="9.953" gradientUnits="userSpaceOnUse"><stop stop-color="#EC78FF"/><stop offset="1" stop-color="#FFF06A"/></linearGradient><clipPath id="clip0_11470_21285"><rect width="40" height="40" fill="#fff" rx="8"/></clipPath></defs></svg>